<?xml version="1.0" encoding="UTF-8" standalone="no"?>
<!-- Created with Inkscape (http://www.inkscape.org/) -->

<svg
   width="64mm"
   height="64mm"
   viewBox="0 0 64 64"
   version="1.1"
   id="svg1"
   inkscape:version="1.4.2 (ebf0e940d0, 2025-05-08)"
   sodipodi:docname="favicon.svg"
   xmlns:inkscape="http://www.inkscape.org/namespaces/inkscape"
   xmlns:sodipodi="http://sodipodi.sourceforge.net/DTD/sodipodi-0.dtd"
   xmlns="http://www.w3.org/2000/svg"
   xmlns:svg="http://www.w3.org/2000/svg">
  <sodipodi:namedview
     id="namedview1"
     pagecolor="#505050"
     bordercolor="#ffffff"
     borderopacity="1"
     inkscape:showpageshadow="0"
     inkscape:pageopacity="0"
     inkscape:pagecheckerboard="1"
     inkscape:deskcolor="#505050"
     inkscape:document-units="mm"
     inkscape:zoom="3.1037318"
     inkscape:cx="119.53353"
     inkscape:cy="91.663849"
     inkscape:window-width="1920"
     inkscape:window-height="1080"
     inkscape:window-x="0"
     inkscape:window-y="0"
     inkscape:window-maximized="0"
     inkscape:current-layer="layer1" />
  <defs
     id="defs1" />
  <g
     inkscape:label="Layer 1"
     inkscape:groupmode="layer"
     id="layer1">
    <path
       style="fill:none;stroke:#ffffff;stroke-width:4.38854"
       id="path1"
       d="m 32.255677,6.2155913 c -2.049204,0.8621193 -4.20205,1.4812777 -6.319531,2.1729925 -3.077112,0.9463864 -6.196612,1.7673562 -9.238895,2.8126772 -1.136771,0.410514 -2.244067,0.894715 -3.268704,1.519549 -0.808344,0.492932 -1.556014,1.079349 -2.311412,1.640359 -1.1477939,0.886433 -2.1637461,1.922208 -2.89351,3.149607 -0.4616758,0.7765 -0.5435431,1.052549 -0.8839959,1.869283 -0.5631021,1.628193 -0.7604169,3.336602 -0.8970235,5.036632 -0.05626,0.792746 -0.012131,1.574973 0.5571421,2.208476 0.1499772,0.1669 0.3060551,0.339509 0.5054444,0.450592 0.4991327,0.278083 1.0462535,0.470239 1.5693758,0.705359 0.4582211,0.09383 0.9113611,0.213725 1.3746721,0.281491 2.364103,0.345783 4.805756,0.289062 7.143927,-0.194345 0.535728,-0.11076 1.056916,-0.277339 1.585366,-0.416009 0.464612,-0.172825 0.94204,-0.317419 1.393835,-0.518476 0.786358,-0.349938 1.728654,-0.941222 2.445777,-1.397699 0.945565,-0.601892 1.857928,-1.247529 2.776296,-1.885527 0,0 -0.595751,-0.357761 -0.595751,-0.357761 v 0 c -0.908047,0.644446 -1.811268,1.294629 -2.753176,1.894709 -0.696703,0.443857 -1.671506,1.047648 -2.436028,1.388264 -0.448719,0.199916 -0.922578,0.344548 -1.383876,0.516823 -0.525179,0.138084 -1.043054,0.30421 -1.575556,0.414253 -2.33606,0.482755 -4.784791,0.533303 -7.1434341,0.164454 -0.4663876,-0.07293 -0.9214088,-0.20053 -1.3821088,-0.300794 -0.1185067,-0.01235 -0.2521948,0.01933 -0.35552,-0.03708 C 7.971272,27.225492 7.8125833,27.06025 7.6606019,26.898905 7.08027,26.282798 7.0253109,25.515806 7.0771581,24.728764 c 0.1235086,-1.69615 0.3193289,-3.40021 0.8733943,-5.025678 0.3365849,-0.815455 0.4142679,-1.0857 0.8746074,-1.860088 0.7262038,-1.221649 1.7389382,-2.250339 2.8857742,-3.127233 0.754871,-0.55656 1.50124,-1.140644 2.304696,-1.634619 1.015873,-0.624581 2.113631,-1.111024 3.242763,-1.520988 3.040384,-1.052186 6.160482,-1.8691449 9.239572,-2.8109023 2.132108,-0.695132 4.297208,-1.3154998 6.375272,-2.1483983 z" />
    <path
       style="fill:none;stroke:#ffffff;stroke-width:4.38854"
       id="path2"
       d="m 25.329969,23.260109 c -1.783832,1.120985 -3.324401,2.539319 -4.781318,4.014881 -0.988894,0.973562 -1.79773,2.089405 -2.681155,3.145583 -0.483125,0.577604 -0.97846,1.145932 -1.466077,1.720131 -1.022026,1.286466 -2.084745,2.566503 -2.826209,4.025492 -0.460322,0.905769 -0.491661,1.131346 -0.799799,2.085566 -0.390102,1.443072 -0.671051,2.933326 -0.301106,4.408808 0.05784,0.230571 0.150197,0.452093 0.225296,0.678139 0.369479,0.99449 1.124094,1.738806 1.961834,2.404158 0.237743,0.188824 0.475081,0.381214 0.737983,0.537186 0.475864,0.282327 0.981809,0.516282 1.472723,0.774415 0.372222,0.09086 0.737552,0.212558 1.116666,0.272568 1.566941,0.248008 3.261962,0.07596 4.782672,-0.329219 0.371361,-0.09895 0.731918,-0.231287 1.097872,-0.346923 1.190842,-0.438454 2.347682,-0.954206 3.495002,-1.485231 0,0 -0.594872,-0.371647 -0.594872,-0.371647 v 0 c -1.138696,0.535019 -2.288187,1.053032 -3.474668,1.487111 -0.364847,0.11383 -0.724464,0.244007 -1.094541,0.341491 -1.514874,0.39906 -3.20484,0.569663 -4.762498,0.303682 -0.37863,-0.06465 -0.742053,-0.192918 -1.113079,-0.289369 -0.509576,-0.206102 -0.334862,-0.110952 -1.010186,-0.641059 -0.833854,-0.654563 -1.591185,-1.387504 -1.968576,-2.368564 -0.07745,-0.223643 -0.172192,-0.442551 -0.232337,-0.670931 -0.385725,-1.464906 -0.108318,-2.951088 0.27069,-4.388588 0.303058,-0.945166 0.336761,-1.177943 0.790182,-2.075679 0.735935,-1.457095 1.794126,-2.736745 2.821893,-4.013973 0.488593,-0.574237 0.985809,-1.141897 1.470648,-1.718993 0.884383,-1.052675 1.692155,-2.166187 2.674149,-3.142506 1.45203,-1.476829 2.991034,-2.901431 4.806548,-3.976531 z" />
    <path
       style="fill:none;stroke:#ffffff;stroke-width:4.38854"
       id="path3"
       d="m 57.190851,25.797152 c -1.59202,0.376633 -3.097462,1.00182 -4.597831,1.618632 -1.710853,0.658002 -3.311514,1.536573 -4.919376,2.389306 -1.352308,0.68798 -2.609238,1.521025 -3.829608,2.398789 -1.184469,0.837492 -2.367786,1.673146 -3.515369,2.556052 -1.261484,0.938929 -2.385947,2.020485 -3.347494,3.235687 -0.701256,0.960166 -0.818515,2.139774 -0.97403,3.266111 -0.140351,1.420103 -0.390313,2.820852 -0.691568,4.217038 -0.236539,1.133105 -0.593773,2.237714 -0.914306,3.350505 -0.342519,1.20154 -0.48811,2.437091 -0.565713,3.675829 -0.01688,0.552642 -2.99e-4,1.105414 0.02444,1.657552 0.0079,0.17928 0.02215,0.577934 0.06039,0.762859 0.0254,0.122662 0.0727,0.240306 0.109083,0.360463 0.434478,0.826064 1.182482,1.461397 1.887879,2.081279 0.715435,0.565678 1.557605,0.971643 2.372541,1.391702 0.782438,0.409584 1.621663,0.715747 2.493967,0.896678 0.870415,0.154997 1.75725,0.1751 2.640024,0.188877 0.857307,0.06425 1.656596,-0.183737 2.447297,-0.463437 0.914306,-0.322673 1.822564,-0.663716 2.710937,-1.04621 1.013728,-0.432729 2.028898,-0.860392 3.027419,-1.32404 1.001808,-0.483215 1.988381,-0.994528 2.963079,-1.525123 0,0 -0.608154,-0.374688 -0.608154,-0.374688 v 0 c -0.973397,0.529205 -1.95634,1.043112 -2.957972,1.522911 -0.998749,0.463576 -2.016178,0.88718 -3.030205,1.319608 -0.890097,0.376176 -1.793107,0.725791 -2.70896,1.041818 -0.787334,0.274471 -1.582825,0.504303 -2.433575,0.441171 -0.879697,-0.01464 -1.763816,-0.03741 -2.629861,-0.199408 -0.868489,-0.192179 -1.70498,-0.499432 -2.483884,-0.913554 -0.114788,-0.05961 -0.217155,-0.149653 -0.344382,-0.178711 -0.113197,-0.02586 0.273872,0.06124 0.300604,0.168717 0.02655,0.106738 -0.200259,-0.109821 -0.299831,-0.165626 -0.274549,-0.15385 -0.544721,-0.314581 -0.782552,-0.518104 -0.705712,-0.611733 -1.445981,-1.239836 -1.902822,-2.046862 -0.03815,-0.116343 -0.08764,-0.229864 -0.114384,-0.349029 -0.04088,-0.182184 -0.05872,-0.585246 -0.06813,-0.761216 -0.02962,-0.551121 -0.05072,-1.103032 -0.03516,-1.654966 0.07832,-1.23346 0.215837,-2.465693 0.563296,-3.661036 0.321359,-1.114767 0.675833,-2.222328 0.90926,-3.358239 0.296745,-1.397859 0.554285,-2.798302 0.698575,-4.218918 0.153642,-1.115344 0.268167,-2.281285 0.955701,-3.235912 0.949872,-1.216281 2.070548,-2.293415 3.328963,-3.226506 1.152128,-0.878052 2.338179,-1.711429 3.522771,-2.549274 1.215113,-0.877103 2.465863,-1.710516 3.813856,-2.397161 1.604582,-0.852212 3.205358,-1.723877 4.910162,-2.386954 1.502813,-0.616588 3.016782,-1.245214 4.622727,-1.580312 z" />
    <path
       style="fill:none;stroke:#ffffff;stroke-width:4.38854"
       id="path4"
       d="m 50.814805,44.479029 c 0.97476,-0.06319 1.946337,-0.162706 2.920111,-0.238208 0.410769,0.0049 0.836491,-0.101729 1.247524,-0.04123 0.09934,0.01464 0.380011,0.124029 0.286909,0.08808 -0.544483,-0.210184 -0.462581,-0.229596 -0.24961,0.165138 0.244353,0.961868 0.417441,1.942392 0.585967,2.919232 0.104573,0.799674 0.176111,1.60187 0.277151,2.402048 0.07912,0.596582 0.09252,1.198035 0.101761,1.798464 7.56e-4,0.09926 0.0018,0.198513 0.0026,0.297762 0,0 0.655808,0.316117 0.655808,0.316117 v 0 c -8.79e-4,-0.09954 -0.0026,-0.199074 -0.0035,-0.298616 -0.0095,-0.602421 -0.016,-1.206403 -0.09795,-1.804864 -0.103184,-0.802341 -0.186308,-1.605602 -0.283955,-2.408497 -0.170433,-0.980857 -0.353612,-1.961723 -0.57046,-2.933854 -0.05019,-0.107357 -0.05969,-0.242283 -0.150575,-0.32207 -0.896496,-0.787126 -1.312935,-0.655697 -2.393982,-0.578666 -0.977985,0.07848 -1.953764,0.180931 -2.933973,0.232401 z" />
  </g>
</svg>
